<svg width="69" height="36" viewBox="0 0 69 36" fill="none" xmlns="http://www.w3.org/2000/svg">
<path id="Vector" fill-rule="evenodd" clip-rule="evenodd" d="M4.89681 27.3366C6.29108 28.1828 7.79965 28.6059 9.42252 28.6059C11.1597 28.6059 12.5425 28.2326 13.5711 27.4859C13.9389 27.2247 14.2703 26.9133 14.5654 26.5517V28.2326H21.9368V0.53125H14.1882V9.21447C13.9645 8.98366 13.7245 8.77725 13.4682 8.59525C12.4168 7.82371 11.0682 7.43792 9.42252 7.43792C7.79965 7.43792 6.29108 7.86104 4.89681 8.70725C3.52538 9.55346 2.42824 10.773 1.60538 12.3659C0.782522 13.9339 0.371094 15.813 0.371094 18.0033C0.371094 20.1935 0.782522 22.085 1.60538 23.6779C2.42824 25.2459 3.52538 26.4655 4.89681 27.3366ZM12.8168 21.5873C12.3597 21.8859 11.8454 22.0353 11.274 22.0353C10.7025 22.0353 10.1883 21.8859 9.73109 21.5873C9.27394 21.2886 8.90824 20.8406 8.63395 20.2433C8.35967 19.621 8.22252 18.8744 8.22252 18.0033C8.22252 17.1073 8.35967 16.373 8.63395 15.8006C8.90824 15.2033 9.27394 14.7553 9.73109 14.4566C10.1883 14.1579 10.7025 14.0086 11.274 14.0086C11.8454 14.0086 12.3597 14.1579 12.8168 14.4566C13.274 14.7553 13.6397 15.2033 13.914 15.8006C14.1882 16.373 14.3254 17.1073 14.3254 18.0033C14.3254 18.8744 14.1882 19.621 13.914 20.2433C13.6397 20.8406 13.274 21.2886 12.8168 21.5873ZM23.1395 7.81125L30.6823 28.2326H38.7052L46.248 7.81125H38.9109L34.8777 18.7658L31.0938 7.81125H23.1395ZM55.9015 27.4859C56.9755 28.2326 58.3242 28.6059 59.9472 28.6059C61.593 28.6059 63.1015 28.1828 64.473 27.3366C65.8444 26.4904 66.9415 25.2833 67.7644 23.7153C68.5872 22.1224 68.9987 20.2308 68.9987 18.0406C68.9987 15.8504 68.5872 13.9713 67.7644 12.4033C66.9415 10.8104 65.8444 9.59079 64.473 8.74458C63.1015 7.87346 61.593 7.43792 59.9472 7.43792C58.233 7.43792 56.8499 7.81125 55.7987 8.55792C55.4322 8.8179 55.101 9.12762 54.8044 9.4871V7.81125H47.4329V35.4753H55.1815V26.8529C55.4052 27.0868 55.6452 27.2979 55.9015 27.4859ZM59.1604 14.207L59.0159 13.2315C59.0048 13.1548 58.9748 13.0842 58.9307 13.0291C58.8861 12.9741 58.8295 12.9371 58.7682 12.9232L58.7421 12.9172C58.2424 12.8044 57.7161 12.8044 57.2164 12.9172L57.1902 12.9232C57.129 12.9371 57.0724 12.9741 57.0278 13.0291C56.9837 13.0842 56.9541 13.1548 56.9425 13.2315L56.7908 14.2548C56.4462 14.418 56.1252 14.6502 55.8402 14.9422L55.0542 14.593C54.9955 14.5671 54.9317 14.5641 54.8717 14.5844C54.8112 14.6048 54.7577 14.6475 54.7169 14.707L54.6998 14.7322C54.3677 15.2212 54.1088 15.7807 53.9348 16.3841L53.9262 16.4153C53.8829 16.5652 53.9185 16.7332 54.0158 16.8375L54.6518 17.5153C54.6222 17.7408 54.6077 17.9711 54.6077 18.1991C54.6077 18.4294 54.6222 18.6597 54.6518 18.8829L54.0175 19.5606C53.9704 19.6114 53.9361 19.679 53.9202 19.7544C53.9044 19.8298 53.907 19.9095 53.9284 19.9829L53.937 20.0141C54.111 20.6175 54.3672 21.1753 54.702 21.6659L54.7191 21.6911C54.7594 21.7504 54.8134 21.7931 54.8734 21.8134C54.9338 21.8338 54.9977 21.8309 55.0564 21.8051L55.8424 21.456C56.1287 21.7499 56.4475 21.9826 56.7925 22.1434L56.9442 23.1666C56.9558 23.2434 56.9858 23.314 57.0299 23.369C57.0741 23.4241 57.1307 23.461 57.1924 23.475L57.2181 23.4809C57.723 23.5943 58.2394 23.5943 58.7442 23.4809L58.77 23.475C58.8317 23.461 58.8882 23.4241 58.9324 23.369C58.977 23.314 59.0065 23.2434 59.0181 23.1666L59.169 22.1482C59.5165 21.985 59.8375 21.7535 60.1259 21.4584L60.906 21.8051C60.9651 21.8311 61.0285 21.8341 61.089 21.8137C61.149 21.7934 61.203 21.7506 61.2432 21.6911L61.2608 21.6659C61.5951 21.1729 61.8514 20.6175 62.0254 20.0141L62.034 19.9829C62.0755 19.8341 62.04 19.6674 61.9427 19.563L61.3144 18.8924C61.3444 18.6645 61.3594 18.4318 61.3594 18.2003C61.3594 17.9688 61.3444 17.7348 61.3144 17.5081L61.9427 16.8375C61.9902 16.7868 62.0241 16.7192 62.0404 16.6438C62.0562 16.5683 62.0532 16.4886 62.0322 16.4153L62.0237 16.3841C61.8505 15.7803 61.5912 15.2207 61.2587 14.7322L61.2415 14.707C61.2008 14.6477 61.1472 14.6051 61.0868 14.5847C61.0268 14.5644 60.963 14.5673 60.9042 14.593L60.1718 14.9184C60.0107 14.7375 59.8328 14.5836 59.6387 14.4566C59.4857 14.3567 59.3262 14.2735 59.1604 14.207Z" fill="#083D77"/>
</svg>
