<svg width="18" height="20" viewBox="0 0 18 20" fill="none" xmlns="http://www.w3.org/2000/svg">
<path d="M17.9893 18.0625L15.9268 1.5625C15.8811 1.19993 15.7046 0.866499 15.4305 0.62483C15.1564 0.383161 14.8035 0.249875 14.438 0.25H3.56301C3.19757 0.249875 2.84466 0.383161 2.57054 0.62483C2.29641 0.866499 2.11995 1.19993 2.07427 1.5625L0.011765 18.0625C-0.0148421 18.2737 0.00380242 18.4881 0.0664596 18.6915C0.129117 18.895 0.234352 19.0827 0.37517 19.2423C0.515989 19.402 0.689167 19.5298 0.883195 19.6173C1.07722 19.7048 1.28766 19.7501 1.50052 19.75H5.3152C5.64878 19.7501 5.97287 19.6389 6.23621 19.4342C6.49955 19.2294 6.68712 18.9427 6.76926 18.6194L9.00051 9.99438L11.2308 18.6138C11.3119 18.9383 11.4992 19.2263 11.7628 19.4322C12.0265 19.6381 12.3513 19.7499 12.6858 19.75H16.5005C16.7134 19.7501 16.9238 19.7048 17.1178 19.6173C17.3119 19.5298 17.485 19.402 17.6259 19.2423C17.7667 19.0827 17.8719 18.895 17.9346 18.6915C17.9972 18.4881 18.0159 18.2737 17.9893 18.0625ZM15.0849 6.925C14.5483 6.80183 14.0558 6.53397 13.6607 6.15052C13.2657 5.76706 12.9833 5.28268 12.8443 4.75H14.813L15.0849 6.925ZM14.438 1.75L14.6255 3.25H3.37551L3.56301 1.75H14.438ZM3.18801 4.75H5.15676C5.01771 5.28268 4.73533 5.76706 4.3403 6.15052C3.94528 6.53397 3.45272 6.80183 2.91614 6.925L3.18801 4.75ZM5.3152 18.25H1.50052L2.71927 8.47469C3.69611 8.37098 4.61234 7.95099 5.32853 7.27864C6.04472 6.60628 6.52165 5.71836 6.68676 4.75H8.25051V6.90625L5.3152 18.25ZM12.684 18.2444L9.75051 6.90625V4.75H11.3143C11.4794 5.71836 11.9563 6.60628 12.6725 7.27864C13.3887 7.95099 14.3049 8.37098 15.2818 8.47469L16.5005 18.25L12.684 18.2444Z" fill="white"/>
</svg>
